<svg version="1.1" xmlns="http://www.w3.org/2000/svg" xmlns:xlink="http://www.w3.org/1999/xlink" width="34.63227" height="44.79316" viewBox="0,0,34.63227,44.79316"><defs><radialGradient cx="256.1875" cy="172.8125" r="22.39658" gradientUnits="userSpaceOnUse" id="color-1"><stop offset="0" stop-color="#afa59c"/><stop offset="1" stop-color="#8f877f"/></radialGradient></defs><g transform="translate(-238.33431,-150.3791)"><g data-paper-data="{&quot;isPaintingLayer&quot;:true}" fill="url(#color-1)" fill-rule="nonzero" stroke="#ff0000" stroke-width="0" stroke-linecap="round" stroke-linejoin="miter" stroke-miterlimit="10" stroke-dasharray="" stroke-dashoffset="0" style="mix-blend-mode: normal"><path d="M253.9375,150.8125c-1.86558,0.67881 -5.8631,2.70444 -8.10867,4.86836c-2.33432,2.24943 -4.09307,4.74374 -5.64133,8.38164c-1.54826,3.6379 -1.67961,6.10676 -1.76534,9.02161c-0.08062,2.74114 -0.44459,5.32106 1.26534,7.97839c1.70993,2.65733 5.93102,6.14455 9.342,8.506c3.04813,2.11024 5.88726,3.84096 10.158,4.994c4.27074,1.15304 5.06331,0.45594 7.12548,-0.32768c2.10367,-0.79939 4.44889,-1.85012 5.37452,-4.42232c0.92563,-2.5722 1.74723,-8.43004 0.96848,-13.20408c-1.05358,-6.4589 -2.94638,-14.0196 -6.71848,-22.29592c-1.26791,-2.78189 -4.81489,-2.75465 -6.94662,-3.42082c-1.81818,-0.56818 -3.1878,-0.758 -5.05338,-0.07918z"/></g></g></svg>