<svg version="1.1" xmlns="http://www.w3.org/2000/svg" xmlns:xlink="http://www.w3.org/1999/xlink" width="187.04209" height="179.22501" viewBox="0,0,187.04209,179.22501"><defs><radialGradient cx="242.46875" cy="158.75" r="93.52105" gradientUnits="userSpaceOnUse" id="color-1"><stop offset="0" stop-color="#afa59c"/><stop offset="1" stop-color="#8f877f"/></radialGradient><linearGradient x1="290.80917" y1="185.75" x2="290.80917" y2="256.08334" gradientUnits="userSpaceOnUse" id="color-2"><stop offset="0" stop-color="#8f877f"/><stop offset="1" stop-color="#5c5652"/></linearGradient><linearGradient x1="198.34571" y1="216.36938" x2="223.52929" y2="204.13062" gradientUnits="userSpaceOnUse" id="color-3"><stop offset="0" stop-color="#8f877f"/><stop offset="1" stop-color="#5c5652"/></linearGradient><linearGradient x1="196.67601" y1="154.29327" x2="209.94899" y2="155.39859" gradientUnits="userSpaceOnUse" id="color-4"><stop offset="0" stop-color="#8f877f"/><stop offset="1" stop-color="#5c5652"/></linearGradient></defs><g transform="translate(-161.96037,-84.3116)"><g data-paper-data="{&quot;isPaintingLayer&quot;:true}" fill-rule="nonzero" stroke-width="0" stroke-linejoin="miter" stroke-miterlimit="10" stroke-dasharray="" stroke-dashoffset="0" style="mix-blend-mode: normal"><path d="M168.96875,228.75c-1.17499,-6.18187 2.13858,-26.64445 3.13631,-32.06692c1.74693,-9.49418 9.11564,-17.82142 8.36369,-29.93308c-0.75195,-12.11166 -8.82565,-15.9694 -11.71834,-24.10021c-3.2355,-9.09438 -6.32663,-17.0054 -6.78166,-28.39979c-0.19497,-4.88228 3.06102,-8.47861 4.4185,-10.30419c2.46936,-3.32086 5.23697,-6.95847 10.0815,-9.19581c4.84453,-2.23734 15.81003,-5.97625 25.35385,-7.16923c12.3777,-1.54721 26.56848,-5.69286 42.64615,-1.33077c16.07767,4.36209 29.26138,14.62296 42.33183,24.38643c14.45632,10.79869 26.94532,20.88917 40.66817,37.61357c13.72285,16.7244 11.5458,19.4028 14.87055,30.07294c3.78266,12.13971 5.97599,23.5135 6.62945,38.92706c0.24914,5.87675 -0.90634,6.8595 -2.69231,9.53846c-2.37641,3.56462 -5.18106,7.68797 -10.30769,9.96154c-5.12664,2.27357 -34.78752,14.33776 -53.94516,18.53344c-21.00533,4.60034 -40.73125,9.49945 -67.05484,7.96656c-11.8675,-0.69108 -10.02693,-4.9494 -13.44744,-8.54993c-2.77833,-2.92456 -1.44611,-8.60807 -5.55256,-11.45007c-4.10646,-2.842 -11.69936,-1.09781 -15.62177,-3.20429c-4.87066,-2.61573 -10.20324,-5.11384 -11.37823,-11.29571z" fill="url(#color-1)" stroke="#ff0000" stroke-linecap="round"/><path d="M279.13542,256.08334c0,0 10.80814,-6.11899 13.16667,-13.33333c2.35853,-7.21434 6.0155,-10.6108 5,-25.66667c-1.0155,-15.05587 -8.16667,-31.33334 -8.16667,-31.33334c0,0 7.70213,11.76743 10.66667,22.33333c2.96453,10.5659 2.99125,15.65491 2.33333,24c-0.67858,8.60723 -2.83333,18.33333 -2.83333,18.33333c0,0 -5.83096,1.98839 -8.85682,2.73861c-3.59709,0.89184 -11.30984,2.92806 -11.30984,2.92806z" fill="url(#color-2)" stroke="#5c5652" stroke-linecap="round"/><path d="M223.52929,204.13062c5.79367,11.92158 4.85282,24.32567 -2.10143,27.70531c-6.95425,3.37964 -17.28849,-3.54497 -23.08215,-15.46655c-5.79367,-11.92158 -4.85282,-24.32567 2.10143,-27.70531c6.95425,-3.37964 17.28849,3.54497 23.08215,15.46655z" fill="url(#color-3)" stroke="none" stroke-linecap="butt"/><path d="M209.94899,155.39859c-0.33892,9.70051 -3.58492,17.31689 -7.25016,17.01166c-3.66523,-0.30522 -6.36175,-8.41648 -6.02283,-18.11698c0.33892,-9.70051 3.58492,-17.31689 7.25016,-17.01166c3.66523,0.30522 6.36175,8.41648 6.02283,18.11698z" fill="url(#color-4)" stroke="none" stroke-linecap="butt"/></g></g></svg>