<svg version="1.1" xmlns="http://www.w3.org/2000/svg" xmlns:xlink="http://www.w3.org/1999/xlink" width="114.04522" height="83.03842" viewBox="0,0,114.04522,83.03842"><defs><radialGradient cx="254.9375" cy="170.5" r="57.02261" gradientUnits="userSpaceOnUse" id="color-1"><stop offset="0" stop-color="#afa59c"/><stop offset="1" stop-color="#8f877f"/></radialGradient><linearGradient x1="212.58957" y1="186.54192" x2="227.78543" y2="179.157" gradientUnits="userSpaceOnUse" id="color-2"><stop offset="0" stop-color="#8f877f"/><stop offset="1" stop-color="#5c5652"/></linearGradient><linearGradient x1="294.74722" y1="155.70499" x2="283.4748" y2="160.24392" gradientUnits="userSpaceOnUse" id="color-3"><stop offset="0" stop-color="#8f877f"/><stop offset="1" stop-color="#5c5652"/></linearGradient><linearGradient x1="298.11032" y1="180.15433" x2="292.1117" y2="182.26526" gradientUnits="userSpaceOnUse" id="color-4"><stop offset="0" stop-color="#8f877f"/><stop offset="1" stop-color="#5c5652"/></linearGradient></defs><g transform="translate(-196.44897,-135.52989)"><g data-paper-data="{&quot;isPaintingLayer&quot;:true}" fill-rule="nonzero" stroke-width="0" stroke-linejoin="miter" stroke-miterlimit="10" stroke-dasharray="" stroke-dashoffset="0" style="mix-blend-mode: normal"><path d="M212.23438,202.375c3.44457,2.54456 8.6761,5.48329 13.79344,7.72213c5.51895,2.41454 10.84049,4.77041 18.20656,6.27787c7.36607,1.50746 15.00925,2.6536 22.29506,2.01073c6.85452,-0.60481 12.63866,-2.55317 20.20494,-5.76073c7.56628,-3.20756 9.83081,-4.97053 13.9896,-8.73532c3.70543,-3.35439 9.50433,-6.48682 9.7604,-12.76468c0.25607,-6.27785 -4.55539,-26.78008 -7.73732,-36.83314c-2.18066,-6.88961 -2.19357,-14.82617 -9.51268,-17.66686c-7.31911,-2.84069 -17.29921,0.67767 -25.98477,1.23664c-8.10799,0.5218 -14.62638,-2.06832 -24.26523,-1.23664c-9.63885,0.83168 -18.81465,5.73795 -26.61974,8.39877c-6.68851,2.28017 -13.14495,3.3481 -17.63026,9.85123c-4.48531,6.50313 -1.04488,11.28191 -0.70428,16.73152c0.32537,5.2059 0.99203,9.45898 2.70428,15.26848c1.71225,5.80951 2.22829,5.10117 4.0052,7.49614c2.02413,2.72817 4.05023,5.4593 7.4948,8.00386z" fill="url(#color-1)" stroke="#ff0000" stroke-linecap="round"/><path d="M227.78543,179.157c3.49592,7.19352 2.92821,14.6782 -1.26801,16.71748c-4.19622,2.03929 -10.43194,-2.13905 -13.92785,-9.33257c-3.49592,-7.19352 -2.92821,-14.6782 1.26801,-16.71748c4.19622,-2.03929 10.43194,2.13905 13.92785,9.33257z" fill="url(#color-2)" stroke="none" stroke-linecap="butt"/><path d="M283.4748,160.24392c-2.14867,-5.33622 -1.36709,-10.67815 1.74571,-11.93154c3.11279,-1.25339 7.37805,2.0564 9.52672,7.39261c2.14867,5.33622 1.36708,10.67815 -1.74571,11.93154c-3.11279,1.25339 -7.37805,-2.0564 -9.52672,-7.39262z" data-paper-data="{&quot;index&quot;:null}" fill="url(#color-3)" stroke="none" stroke-linecap="butt"/><path d="M292.1117,182.26526c-0.09737,-4.13134 1.16653,-7.953 2.823,-8.53591c1.65647,-0.58292 3.07825,2.29365 3.17562,6.42499c0.09737,4.13134 -1.16653,7.953 -2.823,8.53592c-1.65647,0.58292 -3.07825,-2.29365 -3.17562,-6.42499z" data-paper-data="{&quot;index&quot;:null}" fill="url(#color-4)" stroke="none" stroke-linecap="butt"/></g></g></svg>