<svg version="1.1" xmlns="http://www.w3.org/2000/svg" xmlns:xlink="http://www.w3.org/1999/xlink" width="69.081" height="77.63058" viewBox="0,0,69.081,77.63058"><defs><linearGradient x1="242.88286" y1="141.18472" x2="242.88286" y2="152.14568" gradientUnits="userSpaceOnUse" id="color-1"><stop offset="0" stop-color="#ffffff"/><stop offset="1" stop-color="#c8c8c8"/></linearGradient><linearGradient x1="274.78141" y1="177.11058" x2="263.9405" y2="177.11058" gradientUnits="userSpaceOnUse" id="color-2"><stop offset="0" stop-color="#ffffff"/><stop offset="1" stop-color="#cecece"/></linearGradient><linearGradient x1="246.97129" y1="218.77435" x2="246.97129" y2="186.0121" gradientUnits="userSpaceOnUse" id="color-3"><stop offset="0" stop-color="#ffffff"/><stop offset="1" stop-color="#808080"/></linearGradient><linearGradient x1="237.11714" y1="141.18471" x2="237.11714" y2="152.14568" gradientUnits="userSpaceOnUse" id="color-4"><stop offset="0" stop-color="#ffffff"/><stop offset="1" stop-color="#c8c8c8"/></linearGradient><linearGradient x1="205.2186" y1="177.11058" x2="216.0595" y2="177.11058" gradientUnits="userSpaceOnUse" id="color-5"><stop offset="0" stop-color="#ffffff"/><stop offset="1" stop-color="#cecece"/></linearGradient><linearGradient x1="233.02871" y1="218.77435" x2="233.02871" y2="186.0121" gradientUnits="userSpaceOnUse" id="color-6"><stop offset="0" stop-color="#ffffff"/><stop offset="1" stop-color="#808080"/></linearGradient><linearGradient x1="236.71665" y1="156.1234" x2="237.17832" y2="182.40976" gradientUnits="userSpaceOnUse" id="color-7"><stop offset="0" stop-color="#9e0000"/><stop offset="1" stop-color="#2b0000"/></linearGradient><linearGradient x1="243.18404" y1="156.2484" x2="242.72238" y2="182.53477" gradientUnits="userSpaceOnUse" id="color-8"><stop offset="0" stop-color="#9e0000"/><stop offset="1" stop-color="#2b0000"/></linearGradient></defs><g transform="translate(-205.4595,-141.18471)"><g data-paper-data="{&quot;isPaintingLayer&quot;:true}" fill-rule="nonzero" stroke-width="0" stroke-linejoin="miter" stroke-miterlimit="10" stroke-dasharray="" stroke-dashoffset="0" style="mix-blend-mode: normal"><g data-paper-data="{&quot;index&quot;:null}"><path d="M239.94866,152.14568v-10.96097h5.8684v10.96097z" fill="url(#color-1)" stroke="none" stroke-linecap="butt"/><path d="M263.9405,165.63374l10.53977,8.1332l0.06023,14.63976l-10.52472,5.96434z" fill="url(#color-2)" stroke="#000000" stroke-linecap="round"/><path d="M239.8595,218.77435l0.1305,-32.51444l14.09309,-0.24781l-8.9169,32.80319z" data-paper-data="{&quot;index&quot;:null}" fill="url(#color-3)" stroke="#000000" stroke-linecap="round"/><path d="M239.88339,192.77503l0.00001,-44.99462l25.35148,13.84942l0.23474,43.35149z" data-paper-data="{&quot;index&quot;:null}" fill="#ffffff" stroke="#000000" stroke-linecap="round"/></g><g><path d="M234.18294,152.14568v-10.96097h5.8684v10.96097z" fill="url(#color-4)" stroke="none" stroke-linecap="butt"/><path d="M215.98422,194.37103l-10.52472,-5.96434l0.06023,-14.63976l10.53977,-8.1332z" fill="url(#color-5)" stroke="#000000" stroke-linecap="round"/><path d="M234.83381,218.81529l-8.9169,-32.80319l14.09309,0.24782l0.1305,32.51444z" data-paper-data="{&quot;index&quot;:null}" fill="url(#color-6)" stroke="#000000" stroke-linecap="round"/><path d="M214.53039,204.98132l0.23474,-43.35149l25.35148,-13.84942l0.00001,44.99462z" data-paper-data="{&quot;index&quot;:null}" fill="#ffffff" stroke="#000000" stroke-linecap="round"/></g><g stroke="#000000" stroke-linecap="round"><path d="M240.22942,182.35618l-6.43582,-5.5215l-0.24732,-14.08198l6.45617,-6.687z" fill="url(#color-7)"/><path d="M239.89824,156.1907l6.45617,6.687l-0.24732,14.08198l-6.43582,5.52149z" data-paper-data="{&quot;index&quot;:null}" fill="url(#color-8)"/></g></g></g></svg>