<svg version="1.1" xmlns="http://www.w3.org/2000/svg" xmlns:xlink="http://www.w3.org/1999/xlink" width="30.25712" height="25.84587" viewBox="0,0,30.25712,25.84587"><defs><linearGradient x1="240.17793" y1="167.45694" x2="240.17793" y2="173.99984" gradientUnits="userSpaceOnUse" id="color-1"><stop offset="0" stop-color="#ffffff"/><stop offset="1" stop-color="#c8c8c8"/></linearGradient><linearGradient x1="254.31662" y1="186.94732" x2="241.53914" y2="186.94732" gradientUnits="userSpaceOnUse" id="color-2"><stop offset="0" stop-color="#ffffff"/><stop offset="1" stop-color="#cecece"/></linearGradient><linearGradient x1="238.19819" y1="167.45694" x2="238.19819" y2="173.99984" gradientUnits="userSpaceOnUse" id="color-3"><stop offset="0" stop-color="#ffffff"/><stop offset="1" stop-color="#c8c8c8"/></linearGradient><linearGradient x1="224.0595" y1="186.94732" x2="236.83698" y2="186.94732" gradientUnits="userSpaceOnUse" id="color-4"><stop offset="0" stop-color="#ffffff"/><stop offset="1" stop-color="#cecece"/></linearGradient><linearGradient x1="237.7428" y1="173.36428" x2="237.98498" y2="187.15336" gradientUnits="userSpaceOnUse" id="color-5"><stop offset="0" stop-color="#9e0000"/><stop offset="1" stop-color="#2b0000"/></linearGradient><linearGradient x1="241.13541" y1="173.42985" x2="240.89324" y2="187.21894" gradientUnits="userSpaceOnUse" id="color-6"><stop offset="0" stop-color="#9e0000"/><stop offset="1" stop-color="#2b0000"/></linearGradient></defs><g transform="translate(-224.0595,-167.45693)"><g data-paper-data="{&quot;isPaintingLayer&quot;:true}" fill-rule="nonzero" stroke-width="0" stroke-linejoin="miter" stroke-miterlimit="10" stroke-dasharray="" stroke-dashoffset="0" style="mix-blend-mode: normal"><g><g data-paper-data="{&quot;index&quot;:null}"><path d="M239.16849,173.99984v-6.54291h2.01887v6.54291z" fill="url(#color-1)" stroke="none" stroke-linecap="butt"/><path d="M246.83405,180.95308l7.09291,4.74098l0.38966,7.2475l-12.77748,-1.92805z" fill="url(#color-2)" stroke="#000000" stroke-linecap="round"/><path d="M239.14831,193.3028v-22.19868l7.8386,4.2822l0.07258,13.40415z" data-paper-data="{&quot;index&quot;:null}" fill="#ffffff" stroke="#000000" stroke-linecap="round"/></g><g><path d="M237.18876,173.99984v-6.54291h2.01887v6.54291z" fill="url(#color-3)" stroke="none" stroke-linecap="butt"/><path d="M236.83698,191.01351l-12.77748,1.92805l0.38966,-7.2475l7.09291,-4.74098z" fill="url(#color-4)" stroke="#000000" stroke-linecap="round"/><path d="M231.31663,188.79047l0.07258,-13.40415l7.8386,-4.2822v22.19868z" data-paper-data="{&quot;index&quot;:null}" fill="#ffffff" stroke="#000000" stroke-linecap="round"/></g></g><g stroke="#000000" stroke-linecap="round"><path d="M239.5855,187.12525l-3.37605,-2.89642l-0.12974,-7.38701l3.38672,-3.50781z" fill="url(#color-5)"/><path d="M239.41178,173.39958l3.38672,3.50781l-0.12974,7.38701l-3.37605,2.89642z" data-paper-data="{&quot;index&quot;:null}" fill="url(#color-6)"/></g></g></g></svg>