<svg version="1.1" xmlns="http://www.w3.org/2000/svg" xmlns:xlink="http://www.w3.org/1999/xlink" width="89.7008" height="73.62995" viewBox="0,0,89.7008,73.62995"><defs><linearGradient x1="243.36394" y1="143.18503" x2="243.36394" y2="155.86861" gradientUnits="userSpaceOnUse" id="color-1"><stop offset="0" stop-color="#ffffff"/><stop offset="1" stop-color="#c8c8c8"/></linearGradient><linearGradient x1="273.83846" y1="207.36399" x2="266.92926" y2="196.89349" gradientUnits="userSpaceOnUse" id="color-2"><stop offset="0" stop-color="#ffffff"/><stop offset="1" stop-color="#cecece"/></linearGradient><linearGradient x1="236.63606" y1="143.18503" x2="236.63606" y2="155.86861" gradientUnits="userSpaceOnUse" id="color-3"><stop offset="0" stop-color="#ffffff"/><stop offset="1" stop-color="#c8c8c8"/></linearGradient><linearGradient x1="206.16155" y1="207.36397" x2="213.07074" y2="196.89349" gradientUnits="userSpaceOnUse" id="color-4"><stop offset="0" stop-color="#ffffff"/><stop offset="1" stop-color="#cecece"/></linearGradient><linearGradient x1="235.97977" y1="159.3143" x2="236.514" y2="189.73179" gradientUnits="userSpaceOnUse" id="color-5"><stop offset="0" stop-color="#9e0000"/><stop offset="1" stop-color="#2b0000"/></linearGradient><linearGradient x1="243.46357" y1="159.45895" x2="242.92935" y2="189.87645" gradientUnits="userSpaceOnUse" id="color-6"><stop offset="0" stop-color="#9e0000"/><stop offset="1" stop-color="#2b0000"/></linearGradient></defs><g transform="translate(-195.1496,-143.18502)"><g data-paper-data="{&quot;isPaintingLayer&quot;:true}" fill-rule="nonzero" stroke-width="0" stroke-linejoin="miter" stroke-miterlimit="10" stroke-dasharray="" stroke-dashoffset="0" style="mix-blend-mode: normal"><g><g data-paper-data="{&quot;index&quot;:null}"><path d="M239.9686,155.86861v-12.68358h6.79067v12.68358z" fill="url(#color-1)" stroke="none" stroke-linecap="butt"/><path d="M278.01399,189.579l-1.13804,15.36314l-14.10116,9.38847l-9.10707,-8.14475z" fill="url(#color-2)" stroke="#000000" stroke-linecap="round"/><path d="M258.12167,144.26007l26.72873,41.48586l-44.95733,31.06904l-0.19286,-61.13032z" data-paper-data="{&quot;index&quot;:null}" fill="#ffffff" stroke="#000000" stroke-linecap="round"/></g><g><path d="M233.24073,155.86861v-12.68358h6.79067v12.68358z" fill="url(#color-3)" stroke="none" stroke-linecap="butt"/><path d="M226.33231,206.18587l-9.10707,8.14474l-14.10117,-9.38847l-1.13804,-15.36314z" fill="url(#color-4)" stroke="#000000" stroke-linecap="round"/><path d="M240.2998,155.68464l-0.19288,61.13032l-44.95733,-31.06904l26.72873,-41.48586z" data-paper-data="{&quot;index&quot;:null}" fill="#ffffff" stroke="#000000" stroke-linecap="round"/></g></g><g stroke="#000000" stroke-linecap="round"><path d="M240.0446,189.66979l-7.44727,-6.38925l-0.28619,-16.29509l7.47081,-7.73792z" fill="url(#color-5)"/><path d="M239.66137,159.39218l7.47081,7.73792l-0.28619,16.29509l-7.44727,6.38924z" data-paper-data="{&quot;index&quot;:null}" fill="url(#color-6)"/></g></g></g></svg>