<svg version="1.1" xmlns="http://www.w3.org/2000/svg" xmlns:xlink="http://www.w3.org/1999/xlink" width="163.25712" height="70.99395" viewBox="0,0,163.25712,70.99395"><defs><linearGradient x1="246.85935" y1="215.49697" x2="246.85935" y2="182.73472" gradientUnits="userSpaceOnUse" id="color-1"><stop offset="0" stop-color="#ffffff"/><stop offset="1" stop-color="#808080"/></linearGradient><linearGradient x1="303.57092" y1="151.70733" x2="303.57092" y2="162.6683" gradientUnits="userSpaceOnUse" id="color-2"><stop offset="0" stop-color="#ffffff"/><stop offset="1" stop-color="#c8c8c8"/></linearGradient><linearGradient x1="321.62856" y1="173.7916" x2="258.82856" y2="173.7916" gradientUnits="userSpaceOnUse" id="color-3"><stop offset="0" stop-color="#ffffff"/><stop offset="1" stop-color="#cecece"/></linearGradient><linearGradient x1="233.14065" y1="215.49697" x2="233.14065" y2="182.73472" gradientUnits="userSpaceOnUse" id="color-4"><stop offset="0" stop-color="#ffffff"/><stop offset="1" stop-color="#808080"/></linearGradient><linearGradient x1="176.42908" y1="151.70733" x2="176.42908" y2="162.6683" gradientUnits="userSpaceOnUse" id="color-5"><stop offset="0" stop-color="#ffffff"/><stop offset="1" stop-color="#c8c8c8"/></linearGradient><linearGradient x1="158.37144" y1="173.7916" x2="221.17144" y2="173.7916" gradientUnits="userSpaceOnUse" id="color-6"><stop offset="0" stop-color="#ffffff"/><stop offset="1" stop-color="#cecece"/></linearGradient><linearGradient x1="237.02859" y1="152.84602" x2="237.49026" y2="179.13238" gradientUnits="userSpaceOnUse" id="color-7"><stop offset="0" stop-color="#9e0000"/><stop offset="1" stop-color="#2b0000"/></linearGradient><linearGradient x1="243.49598" y1="152.97102" x2="243.03432" y2="179.25739" gradientUnits="userSpaceOnUse" id="color-8"><stop offset="0" stop-color="#9e0000"/><stop offset="1" stop-color="#2b0000"/></linearGradient></defs><g transform="translate(-158.37144,-144.50302)"><g data-paper-data="{&quot;isPaintingLayer&quot;:true}" fill-rule="nonzero" stroke-width="0" stroke-linejoin="miter" stroke-miterlimit="10" stroke-dasharray="" stroke-dashoffset="0" style="mix-blend-mode: normal"><g><g data-paper-data="{&quot;index&quot;:null}"><path d="M240.14756,215.49698l-0.2695,-32.51444l18.49309,8.75218l1.4831,10.00319z" data-paper-data="{&quot;index&quot;:null}" fill="url(#color-1)" stroke="#000000" stroke-linecap="round"/><path d="M300.63672,162.6683v-10.96097h5.8684v10.96097z" fill="url(#color-2)" stroke="none" stroke-linecap="butt"/><path d="M259.82856,161.35635l58.53977,-3.8668l3.26023,14.03976l-57.72472,18.56434z" fill="url(#color-3)" stroke="#000000" stroke-linecap="round"/><path d="M239.77144,201.49765l0.00001,-56.99462l21.35148,13.84942l4.23474,32.35149z" data-paper-data="{&quot;index&quot;:null}" fill="#ffffff" stroke="#000000" stroke-linecap="round"/></g><g><path d="M220.14575,201.73791l1.4831,-10.00319l18.49309,-8.75218l-0.2695,32.51444z" data-paper-data="{&quot;index&quot;:null}" fill="url(#color-4)" stroke="#000000" stroke-linecap="round"/><path d="M173.49488,162.6683v-10.96097h5.8684v10.96097z" fill="url(#color-5)" stroke="none" stroke-linecap="butt"/><path d="M216.09616,190.09365l-57.72472,-18.56434l3.26023,-14.03976l58.53977,3.8668z" fill="url(#color-6)" stroke="#000000" stroke-linecap="round"/><path d="M214.64233,190.70394l4.23474,-32.35149l21.35148,-13.84942l0.00001,56.99462z" data-paper-data="{&quot;index&quot;:null}" fill="#ffffff" stroke="#000000" stroke-linecap="round"/></g></g><g stroke="#000000" stroke-linecap="round"><path d="M240.54136,179.0788l-6.43582,-5.5215l-0.24732,-14.08198l6.45617,-6.687z" fill="url(#color-7)"/><path d="M240.21018,152.91332l6.45617,6.687l-0.24732,14.08198l-6.43582,5.52149z" data-paper-data="{&quot;index&quot;:null}" fill="url(#color-8)"/></g></g></g></svg>