<svg version="1.1" xmlns="http://www.w3.org/2000/svg" xmlns:xlink="http://www.w3.org/1999/xlink" width="162.42227" height="150.26663" viewBox="0,0,162.42227,150.26663"><defs><linearGradient x1="255.08588" y1="251.07333" x2="242.62947" y2="232.19636" gradientUnits="userSpaceOnUse" id="color-1"><stop offset="0" stop-color="#ffffff"/><stop offset="1" stop-color="#cecece"/></linearGradient><linearGradient x1="312.30766" y1="141.98559" x2="297.48438" y2="150.8464" gradientUnits="userSpaceOnUse" id="color-2"><stop offset="0" stop-color="#ffffff"/><stop offset="1" stop-color="#cecece"/></linearGradient><linearGradient x1="245.89414" y1="104.86669" x2="245.89414" y2="127.7336" gradientUnits="userSpaceOnUse" id="color-3"><stop offset="0" stop-color="#ffffff"/><stop offset="1" stop-color="#c8c8c8"/></linearGradient><linearGradient x1="300.08588" y1="220.82333" x2="287.62947" y2="201.94636" gradientUnits="userSpaceOnUse" id="color-4"><stop offset="0" stop-color="#ffffff"/><stop offset="1" stop-color="#cecece"/></linearGradient><linearGradient x1="224.91412" y1="251.07333" x2="237.37053" y2="232.19636" gradientUnits="userSpaceOnUse" id="color-5"><stop offset="0" stop-color="#ffffff"/><stop offset="1" stop-color="#cecece"/></linearGradient><linearGradient x1="167.69235" y1="141.98559" x2="182.51562" y2="150.8464" gradientUnits="userSpaceOnUse" id="color-6"><stop offset="0" stop-color="#ffffff"/><stop offset="1" stop-color="#cecece"/></linearGradient><linearGradient x1="234.10587" y1="104.86669" x2="234.10587" y2="127.7336" gradientUnits="userSpaceOnUse" id="color-7"><stop offset="0" stop-color="#ffffff"/><stop offset="1" stop-color="#c8c8c8"/></linearGradient><linearGradient x1="179.91412" y1="220.82333" x2="192.37053" y2="201.94636" gradientUnits="userSpaceOnUse" id="color-8"><stop offset="0" stop-color="#ffffff"/><stop offset="1" stop-color="#cecece"/></linearGradient><linearGradient x1="236.39111" y1="136.99596" x2="236.92534" y2="167.41345" gradientUnits="userSpaceOnUse" id="color-9"><stop offset="0" stop-color="#9e0000"/><stop offset="1" stop-color="#2b0000"/></linearGradient><linearGradient x1="243.87491" y1="137.14061" x2="243.34069" y2="167.55811" gradientUnits="userSpaceOnUse" id="color-10"><stop offset="0" stop-color="#9e0000"/><stop offset="1" stop-color="#2b0000"/></linearGradient></defs><g transform="translate(-158.78886,-104.86669)"><g data-paper-data="{&quot;isPaintingLayer&quot;:true}" fill-rule="nonzero" stroke-width="0" stroke-linejoin="miter" stroke-miterlimit="10" stroke-dasharray="" stroke-dashoffset="0" style="mix-blend-mode: normal"><g><g data-paper-data="{&quot;index&quot;:null}"><path d="M261.36383,218.75924l6.69825,28.19783l-6.92266,8.17624l-8.41891,-29.43395z" fill="url(#color-1)" stroke="#000000" stroke-linecap="round"/><path d="M288.10379,135.15355l21.05919,2.50624l12.04816,19.96844l-11.75932,12.02602z" fill="url(#color-2)" stroke="#000000" stroke-linecap="round"/><path d="M239.77276,127.7336v-22.86692h12.24273v22.86692z" fill="url(#color-3)" stroke="none" stroke-linecap="butt"/><path d="M307.61383,188.75924l0.69825,30.69783l-22.67266,23.67624l-21.91891,-24.43395z" fill="url(#color-4)" stroke="#000000" stroke-linecap="round"/><path d="M272.5005,106.80483l48.18858,74.79385l-81.05247,56.01361l-0.34774,-110.21036z" data-paper-data="{&quot;index&quot;:null}" fill="#ffffff" stroke="#000000" stroke-linecap="round"/></g><g><path d="M227.27949,225.69936l-8.41891,29.43395l-6.92265,-8.17624l6.69825,-28.19783z" fill="url(#color-5)" stroke="#000000" stroke-linecap="round"/><path d="M170.54818,169.65424l-11.75932,-12.02602l12.04816,-19.96843l21.0592,-2.50624z" fill="url(#color-6)" stroke="#000000" stroke-linecap="round"/><path d="M227.98451,127.7336v-22.86692h12.24273v22.86692z" fill="url(#color-7)" stroke="none" stroke-linecap="butt"/><path d="M216.27949,218.69936l-21.91891,24.43395l-22.67265,-23.67624l0.69826,-30.69783z" fill="url(#color-8)" stroke="#000000" stroke-linecap="round"/><path d="M240.71114,127.40193l-0.34774,110.21036l-81.05247,-56.01361l48.18857,-74.79384z" data-paper-data="{&quot;index&quot;:null}" fill="#ffffff" stroke="#000000" stroke-linecap="round"/></g></g><g stroke="#000000" stroke-linecap="round"><path d="M240.45594,167.35145l-7.44727,-6.38925l-0.28619,-16.29509l7.47081,-7.73792z" fill="url(#color-9)"/><path d="M240.07271,137.07384l7.47081,7.73792l-0.28619,16.29509l-7.44727,6.38924z" data-paper-data="{&quot;index&quot;:null}" fill="url(#color-10)"/></g></g></g></svg>