<svg version="1.1" xmlns="http://www.w3.org/2000/svg" xmlns:xlink="http://www.w3.org/1999/xlink" width="269.03358" height="120.99395" viewBox="0,0,269.03358,120.99395"><defs><linearGradient x1="181.42214" y1="143.71119" x2="181.42214" y2="162.39181" gradientUnits="userSpaceOnUse" id="color-1"><stop offset="0" stop-color="#ffffff"/><stop offset="1" stop-color="#c8c8c8"/></linearGradient><linearGradient x1="228.65057" y1="240.49696" x2="228.65057" y2="184.66073" gradientUnits="userSpaceOnUse" id="color-2"><stop offset="0" stop-color="#ffffff"/><stop offset="1" stop-color="#808080"/></linearGradient><linearGradient x1="105.48321" y1="176.23625" x2="212.51233" y2="176.23625" gradientUnits="userSpaceOnUse" id="color-3"><stop offset="0" stop-color="#ffffff"/><stop offset="1" stop-color="#cecece"/></linearGradient><linearGradient x1="298.57786" y1="143.71119" x2="298.57786" y2="162.39181" gradientUnits="userSpaceOnUse" id="color-4"><stop offset="0" stop-color="#ffffff"/><stop offset="1" stop-color="#c8c8c8"/></linearGradient><linearGradient x1="251.34943" y1="240.49696" x2="251.34943" y2="184.66073" gradientUnits="userSpaceOnUse" id="color-5"><stop offset="0" stop-color="#ffffff"/><stop offset="1" stop-color="#808080"/></linearGradient><linearGradient x1="374.51679" y1="176.23625" x2="267.48767" y2="176.23625" gradientUnits="userSpaceOnUse" id="color-6"><stop offset="0" stop-color="#ffffff"/><stop offset="1" stop-color="#cecece"/></linearGradient><linearGradient x1="234.08373" y1="132.01761" x2="234.87054" y2="176.81707" gradientUnits="userSpaceOnUse" id="color-7"><stop offset="0" stop-color="#9e0000"/><stop offset="1" stop-color="#2b0000"/></linearGradient><linearGradient x1="245.106" y1="132.23065" x2="244.3192" y2="177.03012" gradientUnits="userSpaceOnUse" id="color-8"><stop offset="0" stop-color="#9e0000"/><stop offset="1" stop-color="#2b0000"/></linearGradient></defs><g transform="translate(-105.48321,-119.50303)"><g data-paper-data="{&quot;isPaintingLayer&quot;:true}" fill-rule="nonzero" stroke-width="0" stroke-linejoin="miter" stroke-miterlimit="10" stroke-dasharray="" stroke-dashoffset="0" style="mix-blend-mode: normal"><g><g><path d="M176.42143,162.39181v-18.68062h10.00143v18.68062z" fill="url(#color-1)" stroke="none" stroke-linecap="butt"/><g stroke="#000000" stroke-linecap="round"><path d="M206.50355,217.04759l2.52763,-17.04829l31.5175,-14.91621l-0.4593,55.41388z" data-paper-data="{&quot;index&quot;:null}" fill="url(#color-2)"/><path d="M210.80805,197.42945l-99.76847,6.59013l-5.55636,-23.92776l98.3794,-31.63893z" data-paper-data="{&quot;index&quot;:null}" fill="url(#color-3)"/><path d="M197.12415,198.24256l7.21721,-55.13617l36.38901,-23.60336l0.00002,97.1351z" data-paper-data="{&quot;index&quot;:null}" fill="#ffffff"/></g></g><g data-paper-data="{&quot;index&quot;:null}"><path d="M293.57714,162.39181v-18.68062h10.00143v18.68062z" fill="url(#color-4)" stroke="none" stroke-linecap="butt"/><g stroke="#000000" stroke-linecap="round"><path d="M239.91063,240.49697l-0.4593,-55.41388l31.5175,14.91621l2.52763,17.04829z" data-paper-data="{&quot;index&quot;:null}" fill="url(#color-5)"/><path d="M276.13739,148.45289l98.3794,31.63893l-5.55636,23.92776l-99.76847,-6.59013z" data-paper-data="{&quot;index&quot;:null}" fill="url(#color-6)"/><path d="M239.26961,216.63812l0.00002,-97.1351l36.38901,23.60336l7.21721,55.13617z" data-paper-data="{&quot;index&quot;:null}" fill="#ffffff"/></g></g></g><g stroke="#000000" stroke-linecap="round"><path d="M240.07049,176.72575l-10.96847,-9.41021l-0.4215,-23.99971l11.00316,-11.39656z" fill="url(#color-7)"/><path d="M239.50606,132.13231l11.00316,11.39656l-0.4215,23.99971l-10.96847,9.41019z" data-paper-data="{&quot;index&quot;:null}" fill="url(#color-8)"/></g></g></g></svg>