<svg version="1.1" xmlns="http://www.w3.org/2000/svg" xmlns:xlink="http://www.w3.org/1999/xlink" width="213.3489" height="179.49941" viewBox="0,0,213.3489,179.49941"><defs><linearGradient x1="243.86108" y1="90.30536" x2="243.86108" y2="134.36131" gradientUnits="userSpaceOnUse" id="color-1"><stop offset="0" stop-color="#ffffff"/><stop offset="1" stop-color="#808080"/></linearGradient><linearGradient x1="318.89578" y1="204.94824" x2="318.89578" y2="219.68766" gradientUnits="userSpaceOnUse" id="color-2"><stop offset="0" stop-color="#ffffff"/><stop offset="1" stop-color="#c8c8c8"/></linearGradient><linearGradient x1="259.72184" y1="213.05339" x2="259.72184" y2="269.7497" gradientUnits="userSpaceOnUse" id="color-3"><stop offset="0" stop-color="#808080"/><stop offset="1" stop-color="#ffffff"/></linearGradient><linearGradient x1="346.67446" y1="214.14007" x2="255.7716" y2="214.14007" gradientUnits="userSpaceOnUse" id="color-4"><stop offset="0" stop-color="#ffffff"/><stop offset="1" stop-color="#cecece"/></linearGradient><linearGradient x1="236.13892" y1="90.30536" x2="236.13892" y2="134.36131" gradientUnits="userSpaceOnUse" id="color-5"><stop offset="0" stop-color="#ffffff"/><stop offset="1" stop-color="#808080"/></linearGradient><linearGradient x1="161.10423" y1="204.94824" x2="161.10423" y2="219.68766" gradientUnits="userSpaceOnUse" id="color-6"><stop offset="0" stop-color="#ffffff"/><stop offset="1" stop-color="#c8c8c8"/></linearGradient><linearGradient x1="220.27818" y1="213.05339" x2="220.27818" y2="269.7497" gradientUnits="userSpaceOnUse" id="color-7"><stop offset="0" stop-color="#808080"/><stop offset="1" stop-color="#ffffff"/></linearGradient><linearGradient x1="133.32555" y1="214.14007" x2="224.22841" y2="214.14007" gradientUnits="userSpaceOnUse" id="color-8"><stop offset="0" stop-color="#ffffff"/><stop offset="1" stop-color="#cecece"/></linearGradient><linearGradient x1="235.74272" y1="142.42485" x2="236.38264" y2="178.86043" gradientUnits="userSpaceOnUse" id="color-9"><stop offset="0" stop-color="#9e0000"/><stop offset="1" stop-color="#2b0000"/></linearGradient><linearGradient x1="244.70718" y1="142.59811" x2="244.06728" y2="179.03371" gradientUnits="userSpaceOnUse" id="color-10"><stop offset="0" stop-color="#9e0000"/><stop offset="1" stop-color="#2b0000"/></linearGradient></defs><g transform="translate(-133.32555,-90.2503)"><g data-paper-data="{&quot;isPaintingLayer&quot;:true}" fill-rule="nonzero" stroke-width="0" stroke-linejoin="miter" stroke-miterlimit="10" stroke-dasharray="" stroke-dashoffset="0" style="mix-blend-mode: normal"><g><g data-paper-data="{&quot;index&quot;:null}"><path d="M242.66245,90.2503l5.92098,44.11101l-9.35808,-0.33325l-0.08665,-43.72272z" data-paper-data="{&quot;index&quot;:null}" fill="url(#color-1)" stroke="#000000" stroke-linecap="round"/><path d="M314.9501,219.68766v-14.73941h7.89134v14.73941z" fill="url(#color-2)" stroke="none" stroke-linecap="butt"/><path d="M240.06395,269.7497l-0.09346,-52.05996l35.08781,-4.63635l4.41484,13.98934z" data-paper-data="{&quot;index&quot;:null}" fill="url(#color-3)" stroke="#000000" stroke-linecap="round"/><path d="M255.7716,172.74098l89.47715,60.96033l1.4257,21.83788l-63.9073,-4.88894z" fill="url(#color-4)" stroke="#000000" stroke-linecap="round"/><path d="M239.82713,253.07611l-0.80682,-123.97566l13.11299,-10.1534l25.86528,97.02333z" data-paper-data="{&quot;index&quot;:null}" fill="#ffffff" stroke="#000000" stroke-linecap="round"/></g><g><path d="M240.86131,90.30534l-0.08665,43.72271l-9.35808,0.33325l5.92098,-44.111z" data-paper-data="{&quot;index&quot;:null}" fill="url(#color-5)" stroke="#000000" stroke-linecap="round"/><path d="M157.15855,219.68766v-14.73941h7.89134v14.73941z" fill="url(#color-6)" stroke="none" stroke-linecap="butt"/><path d="M200.52684,227.04275l4.41484,-13.98934l35.08781,4.63634l-0.09346,52.05996z" data-paper-data="{&quot;index&quot;:null}" fill="url(#color-7)" stroke="#000000" stroke-linecap="round"/><path d="M197.23285,250.65025l-63.9073,4.88894l1.4257,-21.83788l89.47715,-60.96033z" fill="url(#color-8)" stroke="#000000" stroke-linecap="round"/><path d="M202.00143,215.97039l25.86528,-97.02333l13.11299,10.1534l-0.80682,123.97566z" data-paper-data="{&quot;index&quot;:null}" fill="#ffffff" stroke="#000000" stroke-linecap="round"/></g></g><g stroke="#000000" stroke-linecap="round"><path d="M240.61178,178.78616l-8.9207,-7.65337l-0.34281,-19.51906l8.94891,-9.26887z" fill="url(#color-9)"/><path d="M240.15273,142.51812l8.94891,9.26887l-0.34281,19.51906l-8.9207,7.65334z" data-paper-data="{&quot;index&quot;:null}" fill="url(#color-10)"/></g></g></g></svg>