<svg version="1.1" xmlns="http://www.w3.org/2000/svg" xmlns:xlink="http://www.w3.org/1999/xlink" width="309.50075" height="345.33496" viewBox="0,0,309.50075,345.33496"><defs><linearGradient x1="324.85892" y1="275.55539" x2="324.85892" y2="352.66748" gradientUnits="userSpaceOnUse" id="color-1"><stop offset="0" stop-color="#cecece"/><stop offset="1" stop-color="#ffffff"/></linearGradient><linearGradient x1="261.83585" y1="26.7753" x2="261.83585" y2="94.81278" gradientUnits="userSpaceOnUse" id="color-2"><stop offset="0" stop-color="#ffffff"/><stop offset="1" stop-color="#808080"/></linearGradient><linearGradient x1="394.75037" y1="138.14011" x2="341.03634" y2="138.14011" gradientUnits="userSpaceOnUse" id="color-3"><stop offset="0" stop-color="#ffffff"/><stop offset="1" stop-color="#cecece"/></linearGradient><linearGradient x1="155.14109" y1="275.55539" x2="155.14109" y2="352.66748" gradientUnits="userSpaceOnUse" id="color-4"><stop offset="0" stop-color="#cecece"/><stop offset="1" stop-color="#ffffff"/></linearGradient><linearGradient x1="218.16415" y1="26.7753" x2="218.16415" y2="94.81278" gradientUnits="userSpaceOnUse" id="color-5"><stop offset="0" stop-color="#ffffff"/><stop offset="1" stop-color="#808080"/></linearGradient><linearGradient x1="85.24963" y1="138.14011" x2="138.96366" y2="138.14011" gradientUnits="userSpaceOnUse" id="color-6"><stop offset="0" stop-color="#ffffff"/><stop offset="1" stop-color="#cecece"/></linearGradient><linearGradient x1="232.78226" y1="68.18974" x2="233.82201" y2="127.39081" gradientUnits="userSpaceOnUse" id="color-7"><stop offset="0" stop-color="#9e0000"/><stop offset="1" stop-color="#2b0000"/></linearGradient><linearGradient x1="247.34786" y1="68.47125" x2="246.30812" y2="127.67235" gradientUnits="userSpaceOnUse" id="color-8"><stop offset="0" stop-color="#9e0000"/><stop offset="1" stop-color="#2b0000"/></linearGradient><linearGradient x1="236.20305" y1="131.32545" x2="236.8168" y2="166.27131" gradientUnits="userSpaceOnUse" id="color-9"><stop offset="0" stop-color="#9e0000"/><stop offset="1" stop-color="#2b0000"/></linearGradient><linearGradient x1="244.80098" y1="131.49162" x2="244.18723" y2="166.4375" gradientUnits="userSpaceOnUse" id="color-10"><stop offset="0" stop-color="#9e0000"/><stop offset="1" stop-color="#2b0000"/></linearGradient></defs><g transform="translate(-85.24963,-7.33252)"><g data-paper-data="{&quot;isPaintingLayer&quot;:true}" fill-rule="nonzero" stroke-width="0" stroke-linejoin="miter" stroke-miterlimit="10" stroke-dasharray="" stroke-dashoffset="0" style="mix-blend-mode: normal"><g><g data-paper-data="{&quot;index&quot;:null}"><path d="M336.53202,269.92499l19.92645,40.71701l0.82606,41.62496l-23.90552,0.4005l-35.31528,-55.92167z" fill="url(#color-1)" stroke="#000000" stroke-linecap="round"/><path d="M239.52263,37.98661v-30.65409h13.21659v30.65409z" fill="#ffffff" stroke="none" stroke-linecap="butt"/><path d="M284.03974,47.96066v46.85212l-44.00031,-24.03719l-0.40744,-44.00031z" data-paper-data="{&quot;index&quot;:null}" fill="url(#color-2)" stroke="#000000" stroke-linecap="round"/><path d="M341.03634,65.54141l53.40883,-0.42491l0.3052,115.82373l-53.33257,30.22348z" fill="url(#color-3)" stroke="#000000" stroke-linecap="round"/><path d="M282.31428,35.45263l59.35066,24.59135l19.14672,207.90473l-121.25114,66.23907l-0.00005,-273.19357z" data-paper-data="{&quot;index&quot;:null}" fill="#ffffff" stroke="#000000" stroke-linecap="round"/></g><g><path d="M181.93629,296.74581l-35.31528,55.92167l-23.90552,-0.4005l0.82607,-41.62496l19.92641,-40.71701z" fill="url(#color-4)" stroke="#000000" stroke-linecap="round"/><path d="M227.26079,37.98661v-30.65409h13.21659v30.65409z" fill="#ffffff" stroke="none" stroke-linecap="butt"/><path d="M240.36799,26.7753l-0.40744,44.00031l-44.00031,24.03719v-46.85212z" data-paper-data="{&quot;index&quot;:null}" fill="url(#color-5)" stroke="#000000" stroke-linecap="round"/><path d="M138.58219,211.1637l-53.33257,-30.22348l0.3052,-115.82373l53.40883,0.42491z" fill="url(#color-6)" stroke="#000000" stroke-linecap="round"/><path d="M240.43954,60.99418l-0.00005,273.19357l-121.25114,-66.23907l19.14672,-207.90473l59.35066,-24.59135z" data-paper-data="{&quot;index&quot;:null}" fill="#ffffff" stroke="#000000" stroke-linecap="round"/></g></g><g stroke="#000000" stroke-linecap="round"><path d="M240.69358,127.27017l-14.49451,-12.43531l-0.557,-31.71489l14.54033,-15.0602z" fill="url(#color-7)"/><path d="M239.94769,68.34131l14.54033,15.0602l-0.557,31.71489l-14.49451,12.43528z" data-paper-data="{&quot;index&quot;:null}" fill="url(#color-8)"/></g><g stroke="#000000" stroke-linecap="round"><path d="M240.87302,166.20007l-8.55597,-7.34044l-0.32879,-18.721l8.58302,-8.88989z" fill="url(#color-9)"/><path d="M240.43273,131.41493l8.58302,8.88989l-0.32879,18.721l-8.55597,7.34043z" data-paper-data="{&quot;index&quot;:null}" fill="url(#color-10)"/></g></g></g></svg>