<svg version="1.1" xmlns="http://www.w3.org/2000/svg" xmlns:xlink="http://www.w3.org/1999/xlink" width="84.01684" height="60.7966" viewBox="0,0,84.01684,60.7966"><defs><linearGradient x1="282.00842" y1="188.78822" x2="264.00842" y2="188.78822" gradientUnits="userSpaceOnUse" id="color-1"><stop offset="0" stop-color="#ffffff"/><stop offset="1" stop-color="#cecece"/></linearGradient><linearGradient x1="242.55078" y1="149.6017" x2="242.55078" y2="170.96267" gradientUnits="userSpaceOnUse" id="color-2"><stop offset="0" stop-color="#ffffff"/><stop offset="1" stop-color="#c8c8c8"/></linearGradient><linearGradient x1="249.52405" y1="165.98464" x2="249.52405" y2="196.19452" gradientUnits="userSpaceOnUse" id="color-3"><stop offset="0" stop-color="#ffffff"/><stop offset="1" stop-color="#808080"/></linearGradient><linearGradient x1="197.99158" y1="188.78822" x2="215.99158" y2="188.78822" gradientUnits="userSpaceOnUse" id="color-4"><stop offset="0" stop-color="#ffffff"/><stop offset="1" stop-color="#cecece"/></linearGradient><linearGradient x1="237.44922" y1="149.6017" x2="237.44922" y2="170.96267" gradientUnits="userSpaceOnUse" id="color-5"><stop offset="0" stop-color="#ffffff"/><stop offset="1" stop-color="#c8c8c8"/></linearGradient><linearGradient x1="230.47595" y1="165.98464" x2="230.47595" y2="196.19452" gradientUnits="userSpaceOnUse" id="color-6"><stop offset="0" stop-color="#ffffff"/><stop offset="1" stop-color="#808080"/></linearGradient><linearGradient x1="236.74872" y1="173.34039" x2="237.21039" y2="199.62675" gradientUnits="userSpaceOnUse" id="color-7"><stop offset="0" stop-color="#333333"/><stop offset="1" stop-color="#000000"/></linearGradient><linearGradient x1="243.21611" y1="173.46539" x2="242.75445" y2="199.75176" gradientUnits="userSpaceOnUse" id="color-8"><stop offset="0" stop-color="#333333"/><stop offset="1" stop-color="#000000"/></linearGradient></defs><g transform="translate(-197.99158,-149.6017)"><g data-paper-data="{&quot;isPaintingLayer&quot;:true}" fill-rule="nonzero" stroke-width="0" stroke-linejoin="miter" stroke-miterlimit="10" stroke-dasharray="" stroke-dashoffset="0" style="mix-blend-mode: normal"><g><g data-paper-data="{&quot;index&quot;:null}"><path d="M264.00842,180.85072l17.5,5.625l0.5,10.125l-16.875,0.125z" fill="url(#color-1)" stroke="#000000" stroke-linecap="round"/><path d="M239.61658,170.96267v-21.36097h5.8684v21.36097z" fill="url(#color-2)" stroke="none" stroke-linecap="butt"/><path d="M259.38298,175.39133v20.80319l-19.53693,-10.67295l-0.18091,-19.53693z" data-paper-data="{&quot;index&quot;:null}" fill="url(#color-3)" stroke="#000000" stroke-linecap="round"/><path d="M265.43754,171.19739l-0.23474,25.35149l-25.35148,13.84942l-0.00001,-26.99462z" fill="#ffffff" stroke="#000000" stroke-linecap="round"/></g><g><path d="M214.86658,196.72572l-16.875,-0.125l0.5,-10.125l17.5,-5.625z" fill="url(#color-4)" stroke="#000000" stroke-linecap="round"/><path d="M234.51502,170.96267v-21.36097h5.8684v21.36097z" fill="url(#color-5)" stroke="none" stroke-linecap="butt"/><path d="M240.33486,165.98464l-0.18091,19.53693l-19.53693,10.67295v-20.80319z" data-paper-data="{&quot;index&quot;:null}" fill="url(#color-6)" stroke="#000000" stroke-linecap="round"/><path d="M240.14869,183.40368l-0.00001,26.99462l-25.35148,-13.84942l-0.23474,-25.35149z" fill="#ffffff" stroke="#000000" stroke-linecap="round"/></g></g><g stroke="#000000" stroke-linecap="round"><path d="M240.26149,199.57317l-6.43582,-5.5215l-0.24732,-14.08198l6.45617,-6.687z" fill="url(#color-7)"/><path d="M239.93031,173.40769l6.45617,6.687l-0.24732,14.08198l-6.43582,5.52149z" data-paper-data="{&quot;index&quot;:null}" fill="url(#color-8)"/></g></g></g></svg>