<svg version="1.1" xmlns="http://www.w3.org/2000/svg" xmlns:xlink="http://www.w3.org/1999/xlink" width="84.01689" height="76.64879" viewBox="0,0,84.01689,76.64879"><defs><linearGradient x1="231.22083" y1="211.98382" x2="223.42083" y2="219.78382" gradientUnits="userSpaceOnUse" id="color-1"><stop offset="0" stop-color="#00bfbf"/><stop offset="1" stop-color="#00bfbf" stop-opacity="0"/></linearGradient><linearGradient x1="246.85417" y1="212.15049" x2="254.65417" y2="219.95049" gradientUnits="userSpaceOnUse" id="color-2"><stop offset="0" stop-color="#00bfbf"/><stop offset="1" stop-color="#00bfbf" stop-opacity="0"/></linearGradient></defs><g transform="translate(-197.99155,-149.6017)"><g data-paper-data="{&quot;isPaintingLayer&quot;:true}" fill-rule="nonzero" stroke-linejoin="miter" stroke-miterlimit="10" stroke-dasharray="" stroke-dashoffset="0" style="mix-blend-mode: normal"><g stroke="#000000" stroke-width="0" stroke-linecap="round"><path d="M215.12083,206.08382l24,13.8v6.2l-23.6,-14.2z" fill="url(#color-1)"/><path d="M262.55417,212.05049l-23.6,14.2v-6.2l24,-13.8z" data-paper-data="{&quot;index&quot;:null}" fill="url(#color-2)"/></g><g fill="#00ffff" stroke="#000000" stroke-width="0" stroke-linecap="round"><path d="M214.9875,202.5l24,13.8v6.2l-23.6,-14.2z"/><path d="M262.5875,208.5l-23.6,14.2v-6.2l24,-13.8z" data-paper-data="{&quot;index&quot;:null}"/></g><g fill="none" stroke-width="0.00005"><g><g data-paper-data="{&quot;index&quot;:null}"><path d="M264.00842,180.85072l17.5,5.625l0.5,10.125l-16.875,0.125z" stroke="#000000" stroke-linecap="round"/><path d="M239.61658,170.96267v-21.36097h5.8684v21.36097z" stroke="none" stroke-linecap="butt"/><path d="M259.38298,175.39133v20.80319l-19.53693,-10.67295l-0.18091,-19.53693z" data-paper-data="{&quot;index&quot;:null}" stroke="#000000" stroke-linecap="round"/><path d="M265.43754,171.19739l-0.23474,25.35149l-25.35148,13.84942l-0.00001,-26.99462z" stroke="#000000" stroke-linecap="round"/></g><g><path d="M214.86658,196.72572l-16.875,-0.125l0.5,-10.125l17.5,-5.625z" stroke="#000000" stroke-linecap="round"/><path d="M234.51502,170.96267v-21.36097h5.8684v21.36097z" stroke="none" stroke-linecap="butt"/><path d="M240.33486,165.98464l-0.18091,19.53693l-19.53693,10.67295v-20.80319z" data-paper-data="{&quot;index&quot;:null}" stroke="#000000" stroke-linecap="round"/><path d="M240.14869,183.40368l-0.00001,26.99462l-25.35148,-13.84942l-0.23474,-25.35149z" stroke="#000000" stroke-linecap="round"/></g></g><g stroke="#000000" stroke-linecap="round"><path d="M240.26149,199.57317l-6.43582,-5.5215l-0.24732,-14.08198l6.45617,-6.687z"/><path d="M239.93031,173.40769l6.45617,6.687l-0.24732,14.08198l-6.43582,5.52149z" data-paper-data="{&quot;index&quot;:null}"/></g></g></g></g></svg>